<?xml version="1.0" standalone="no"?>
<!DOCTYPE svg PUBLIC "-//W3C//DTD SVG 20010904//EN"
 "http://www.w3.org/TR/2001/REC-SVG-20010904/DTD/svg10.dtd">
<svg version="1.0" xmlns="http://www.w3.org/2000/svg"
 width="100.000000pt" height="100.000000pt" viewBox="0 0 100.000000 100.000000"
 preserveAspectRatio="xMidYMid meet">

<g transform="translate(0.000000,100.000000) scale(0.100000,-0.100000)"
fill="#000000" stroke="none">
<path d="M265 856 l-220 -114 -3 -240 -2 -239 230 -117 230 -117 197 99 c109
55 213 108 231 118 l32 19 -2 239 -3 239 -220 114 c-121 62 -227 113 -235 113
-8 0 -114 -52 -235 -114z m155 29 c23 -12 34 -13 55 -3 19 8 31 8 50 0 21 -10
32 -9 55 3 28 15 33 14 100 -20 38 -19 84 -44 101 -54 l31 -19 -28 -15 -28
-14 24 -13 23 -12 -24 -13 -24 -13 28 -13 c15 -7 27 -15 27 -19 0 -3 -45 -28
-99 -55 -93 -45 -101 -47 -130 -35 -25 10 -38 10 -57 1 -19 -8 -31 -8 -46 0
-16 8 -30 8 -58 -1 -34 -11 -41 -10 -111 25 -40 21 -84 45 -97 53 l-24 15 28
15 27 14 -23 13 -23 13 23 12 24 13 -28 14 c-15 8 -26 16 -24 18 4 4 192 105
196 105 2 0 16 -7 32 -15z m-300 -195 c48 -24 60 -35 60 -54 0 -13 7 -26 15
-30 8 -3 15 -17 15 -31 0 -17 8 -29 25 -37 l25 -11 0 -179 c0 -98 -3 -178 -6
-178 -4 0 -51 24 -105 52 l-99 53 0 223 c0 122 2 222 5 222 3 0 32 -14 65 -30z
m830 -193 l0 -223 -99 -52 c-54 -29 -101 -52 -105 -52 -3 0 -6 80 -6 178 l0
179 25 11 c17 8 25 20 25 37 0 14 7 28 15 31 8 4 15 17 15 30 0 19 12 30 58
53 31 17 60 30 65 31 4 0 7 -100 7 -223z m-622 70 c2 -10 -3 -17 -12 -17 -9 0
-16 -9 -16 -20 0 -18 -3 -19 -20 -10 -12 6 -20 21 -20 35 0 14 -4 25 -10 25
-5 0 -10 12 -10 26 l0 25 42 -23 c24 -13 44 -31 46 -41z m423 15 c-6 -2 -11
-14 -11 -26 0 -22 -17 -46 -32 -46 -4 0 -8 9 -8 20 0 12 -7 20 -16 20 -28 0
-10 34 31 57 l40 22 3 -21 c2 -12 -1 -24 -7 -26z m-311 -57 l50 -25 0 -225 0
-225 -95 47 -95 48 0 177 c0 98 3 178 6 178 3 0 14 -5 25 -10 16 -9 19 -7 19
10 0 11 7 20 15 20 8 0 15 7 15 15 0 20 2 19 60 -10z m180 10 c0 -8 7 -15 15
-15 8 0 15 -9 15 -20 0 -17 3 -19 19 -10 11 5 22 10 25 10 3 0 6 -80 6 -178
l0 -177 -95 -48 -95 -47 0 225 0 225 48 24 c56 30 62 31 62 11z"/>
<path d="M411 779 l-73 -41 31 -19 c17 -10 53 -30 81 -44 l51 -26 80 43 c73
39 78 44 62 56 -28 21 -131 72 -145 72 -7 0 -46 -19 -87 -41z m118 2 c12 -8 9
-11 -11 -16 -29 -8 -52 1 -43 16 8 12 36 11 54 0z m-73 -53 c-9 -5 -26 -6 -38
-2 -21 6 -21 7 -3 20 13 10 23 11 38 2 18 -9 19 -11 3 -20z m131 1 c-16 -10
-47 -2 -47 11 0 14 24 18 44 7 17 -8 17 -10 3 -18z m-67 -19 c13 -9 13 -11 0
-20 -8 -5 -17 -10 -20 -10 -3 0 -12 5 -20 10 -13 9 -13 11 0 20 8 5 17 10 20
10 3 0 12 -5 20 -10z"/>
</g>
</svg>
